<mxfile host="app.diagrams.net" agent="Mozilla/5.0 (Windows NT 10.0; Win64; x64) AppleWebKit/537.36 (KHTML, like Gecko) Chrome/131.0.0.0 Safari/537.36" version="25.0.3">
  <diagram name="หน้า-1" id="29gw4thI8T2h8BffswDQ">
    <mxGraphModel dx="1034" dy="446" grid="1" gridSize="10" guides="1" tooltips="1" connect="1" arrows="1" fold="1" page="1" pageScale="1" pageWidth="827" pageHeight="1169" math="0" shadow="0">
      <root>
        <mxCell id="0" />
        <mxCell id="1" parent="0" />
        <mxCell id="hf5jpUwvI0Tzl1pVDB7x-3" value="" style="edgeStyle=orthogonalEdgeStyle;rounded=0;orthogonalLoop=1;jettySize=auto;html=1;" edge="1" parent="1" source="hf5jpUwvI0Tzl1pVDB7x-1" target="hf5jpUwvI0Tzl1pVDB7x-2">
          <mxGeometry relative="1" as="geometry" />
        </mxCell>
        <mxCell id="hf5jpUwvI0Tzl1pVDB7x-1" value="start&amp;nbsp;" style="strokeWidth=2;html=1;shape=mxgraph.flowchart.start_1;whiteSpace=wrap;" vertex="1" parent="1">
          <mxGeometry x="350" y="70" width="100" height="60" as="geometry" />
        </mxCell>
        <mxCell id="hf5jpUwvI0Tzl1pVDB7x-5" value="" style="edgeStyle=orthogonalEdgeStyle;rounded=0;orthogonalLoop=1;jettySize=auto;html=1;" edge="1" parent="1" source="hf5jpUwvI0Tzl1pVDB7x-2" target="hf5jpUwvI0Tzl1pVDB7x-4">
          <mxGeometry relative="1" as="geometry" />
        </mxCell>
        <mxCell id="hf5jpUwvI0Tzl1pVDB7x-2" value="สร้างตัวแปร number term =9&lt;div&gt;sum = 0&lt;/div&gt;&lt;div&gt;i = 1&lt;/div&gt;" style="whiteSpace=wrap;html=1;strokeWidth=2;" vertex="1" parent="1">
          <mxGeometry x="340" y="210" width="120" height="60" as="geometry" />
        </mxCell>
        <mxCell id="hf5jpUwvI0Tzl1pVDB7x-7" value="" style="edgeStyle=orthogonalEdgeStyle;rounded=0;orthogonalLoop=1;jettySize=auto;html=1;" edge="1" parent="1" source="hf5jpUwvI0Tzl1pVDB7x-4" target="hf5jpUwvI0Tzl1pVDB7x-6">
          <mxGeometry relative="1" as="geometry" />
        </mxCell>
        <mxCell id="hf5jpUwvI0Tzl1pVDB7x-4" value="แสดงคำว่า Enter Number :" style="shape=parallelogram;perimeter=parallelogramPerimeter;whiteSpace=wrap;html=1;fixedSize=1;strokeWidth=2;" vertex="1" parent="1">
          <mxGeometry x="280" y="350" width="240" height="60" as="geometry" />
        </mxCell>
        <mxCell id="hf5jpUwvI0Tzl1pVDB7x-9" value="" style="edgeStyle=orthogonalEdgeStyle;rounded=0;orthogonalLoop=1;jettySize=auto;html=1;" edge="1" parent="1" source="hf5jpUwvI0Tzl1pVDB7x-6" target="hf5jpUwvI0Tzl1pVDB7x-8">
          <mxGeometry relative="1" as="geometry" />
        </mxCell>
        <mxCell id="hf5jpUwvI0Tzl1pVDB7x-6" value="รับค่าจากผู้ใช้" style="shape=parallelogram;perimeter=parallelogramPerimeter;whiteSpace=wrap;html=1;fixedSize=1;strokeWidth=2;" vertex="1" parent="1">
          <mxGeometry x="340" y="490" width="120" height="60" as="geometry" />
        </mxCell>
        <mxCell id="hf5jpUwvI0Tzl1pVDB7x-13" value="" style="edgeStyle=orthogonalEdgeStyle;rounded=0;orthogonalLoop=1;jettySize=auto;html=1;" edge="1" parent="1" source="hf5jpUwvI0Tzl1pVDB7x-8" target="hf5jpUwvI0Tzl1pVDB7x-12">
          <mxGeometry relative="1" as="geometry" />
        </mxCell>
        <mxCell id="hf5jpUwvI0Tzl1pVDB7x-8" value="แสดงคำว่า Series :" style="shape=parallelogram;perimeter=parallelogramPerimeter;whiteSpace=wrap;html=1;fixedSize=1;strokeWidth=2;" vertex="1" parent="1">
          <mxGeometry x="340" y="630" width="120" height="60" as="geometry" />
        </mxCell>
        <mxCell id="hf5jpUwvI0Tzl1pVDB7x-15" value="" style="edgeStyle=orthogonalEdgeStyle;rounded=0;orthogonalLoop=1;jettySize=auto;html=1;" edge="1" parent="1" source="hf5jpUwvI0Tzl1pVDB7x-12" target="hf5jpUwvI0Tzl1pVDB7x-14">
          <mxGeometry relative="1" as="geometry" />
        </mxCell>
        <mxCell id="hf5jpUwvI0Tzl1pVDB7x-12" value="แสดงจำนวนของ term" style="shape=parallelogram;perimeter=parallelogramPerimeter;whiteSpace=wrap;html=1;fixedSize=1;strokeWidth=2;" vertex="1" parent="1">
          <mxGeometry x="310" y="780" width="180" height="60" as="geometry" />
        </mxCell>
        <mxCell id="hf5jpUwvI0Tzl1pVDB7x-17" value="" style="edgeStyle=orthogonalEdgeStyle;rounded=0;orthogonalLoop=1;jettySize=auto;html=1;" edge="1" parent="1" source="hf5jpUwvI0Tzl1pVDB7x-14" target="hf5jpUwvI0Tzl1pVDB7x-16">
          <mxGeometry relative="1" as="geometry" />
        </mxCell>
        <mxCell id="hf5jpUwvI0Tzl1pVDB7x-14" value="sum += term" style="whiteSpace=wrap;html=1;strokeWidth=2;" vertex="1" parent="1">
          <mxGeometry x="340" y="920" width="120" height="60" as="geometry" />
        </mxCell>
        <mxCell id="hf5jpUwvI0Tzl1pVDB7x-19" value="" style="edgeStyle=orthogonalEdgeStyle;rounded=0;orthogonalLoop=1;jettySize=auto;html=1;" edge="1" parent="1" source="hf5jpUwvI0Tzl1pVDB7x-16" target="hf5jpUwvI0Tzl1pVDB7x-18">
          <mxGeometry relative="1" as="geometry" />
        </mxCell>
        <mxCell id="hf5jpUwvI0Tzl1pVDB7x-22" value="" style="edgeStyle=orthogonalEdgeStyle;rounded=0;orthogonalLoop=1;jettySize=auto;html=1;" edge="1" parent="1" source="hf5jpUwvI0Tzl1pVDB7x-16" target="hf5jpUwvI0Tzl1pVDB7x-21">
          <mxGeometry relative="1" as="geometry" />
        </mxCell>
        <mxCell id="hf5jpUwvI0Tzl1pVDB7x-16" value="i &amp;lt; number&amp;nbsp;" style="rhombus;whiteSpace=wrap;html=1;strokeWidth=2;" vertex="1" parent="1">
          <mxGeometry x="360" y="1050" width="80" height="80" as="geometry" />
        </mxCell>
        <mxCell id="hf5jpUwvI0Tzl1pVDB7x-26" style="edgeStyle=orthogonalEdgeStyle;rounded=0;orthogonalLoop=1;jettySize=auto;html=1;exitX=0.5;exitY=1;exitDx=0;exitDy=0;entryX=0.4;entryY=0.3;entryDx=0;entryDy=0;entryPerimeter=0;" edge="1" parent="1" source="hf5jpUwvI0Tzl1pVDB7x-18" target="hf5jpUwvI0Tzl1pVDB7x-27">
          <mxGeometry relative="1" as="geometry">
            <mxPoint x="410" y="1270" as="targetPoint" />
            <Array as="points">
              <mxPoint x="230" y="1350" />
              <mxPoint x="330" y="1350" />
              <mxPoint x="330" y="1179" />
            </Array>
          </mxGeometry>
        </mxCell>
        <mxCell id="hf5jpUwvI0Tzl1pVDB7x-18" value="แสดง + คั่น" style="shape=parallelogram;perimeter=parallelogramPerimeter;whiteSpace=wrap;html=1;fixedSize=1;strokeWidth=2;" vertex="1" parent="1">
          <mxGeometry x="170" y="1240" width="120" height="60" as="geometry" />
        </mxCell>
        <mxCell id="hf5jpUwvI0Tzl1pVDB7x-20" value="T" style="text;html=1;align=center;verticalAlign=middle;resizable=0;points=[];autosize=1;strokeColor=none;fillColor=none;" vertex="1" parent="1">
          <mxGeometry x="325" y="1048" width="30" height="30" as="geometry" />
        </mxCell>
        <mxCell id="hf5jpUwvI0Tzl1pVDB7x-25" value="" style="edgeStyle=orthogonalEdgeStyle;rounded=0;orthogonalLoop=1;jettySize=auto;html=1;" edge="1" parent="1" source="hf5jpUwvI0Tzl1pVDB7x-21" target="hf5jpUwvI0Tzl1pVDB7x-24">
          <mxGeometry relative="1" as="geometry" />
        </mxCell>
        <mxCell id="hf5jpUwvI0Tzl1pVDB7x-21" value="term = term * 10+9" style="whiteSpace=wrap;html=1;strokeWidth=2;" vertex="1" parent="1">
          <mxGeometry x="500" y="1230" width="120" height="60" as="geometry" />
        </mxCell>
        <mxCell id="hf5jpUwvI0Tzl1pVDB7x-23" value="F" style="text;html=1;align=center;verticalAlign=middle;resizable=0;points=[];autosize=1;strokeColor=none;fillColor=none;" vertex="1" parent="1">
          <mxGeometry x="445" y="1048" width="30" height="30" as="geometry" />
        </mxCell>
        <mxCell id="hf5jpUwvI0Tzl1pVDB7x-29" value="" style="edgeStyle=orthogonalEdgeStyle;rounded=0;orthogonalLoop=1;jettySize=auto;html=1;" edge="1" parent="1" source="hf5jpUwvI0Tzl1pVDB7x-24" target="hf5jpUwvI0Tzl1pVDB7x-28">
          <mxGeometry relative="1" as="geometry" />
        </mxCell>
        <mxCell id="hf5jpUwvI0Tzl1pVDB7x-24" value="i ++" style="whiteSpace=wrap;html=1;strokeWidth=2;" vertex="1" parent="1">
          <mxGeometry x="500" y="1370" width="120" height="60" as="geometry" />
        </mxCell>
        <mxCell id="hf5jpUwvI0Tzl1pVDB7x-27" value="" style="shape=waypoint;sketch=0;fillStyle=solid;size=6;pointerEvents=1;points=[];fillColor=none;resizable=0;rotatable=0;perimeter=centerPerimeter;snapToPoint=1;" vertex="1" parent="1">
          <mxGeometry x="550" y="1169" width="20" height="20" as="geometry" />
        </mxCell>
        <mxCell id="hf5jpUwvI0Tzl1pVDB7x-31" value="" style="edgeStyle=orthogonalEdgeStyle;rounded=0;orthogonalLoop=1;jettySize=auto;html=1;" edge="1" parent="1" source="hf5jpUwvI0Tzl1pVDB7x-28" target="hf5jpUwvI0Tzl1pVDB7x-30">
          <mxGeometry relative="1" as="geometry" />
        </mxCell>
        <mxCell id="hf5jpUwvI0Tzl1pVDB7x-28" value="i &amp;lt;= number" style="rhombus;whiteSpace=wrap;html=1;strokeWidth=2;" vertex="1" parent="1">
          <mxGeometry x="520" y="1500" width="80" height="80" as="geometry" />
        </mxCell>
        <mxCell id="hf5jpUwvI0Tzl1pVDB7x-30" value="แสดงผลรวม" style="shape=parallelogram;perimeter=parallelogramPerimeter;whiteSpace=wrap;html=1;fixedSize=1;strokeWidth=2;" vertex="1" parent="1">
          <mxGeometry x="500" y="1670" width="120" height="60" as="geometry" />
        </mxCell>
        <mxCell id="hf5jpUwvI0Tzl1pVDB7x-32" value="end" style="strokeWidth=2;html=1;shape=mxgraph.flowchart.start_1;whiteSpace=wrap;" vertex="1" parent="1">
          <mxGeometry x="364" y="1810" width="100" height="60" as="geometry" />
        </mxCell>
        <mxCell id="hf5jpUwvI0Tzl1pVDB7x-33" style="edgeStyle=orthogonalEdgeStyle;rounded=0;orthogonalLoop=1;jettySize=auto;html=1;exitX=0.5;exitY=1;exitDx=0;exitDy=0;entryX=0.5;entryY=0;entryDx=0;entryDy=0;entryPerimeter=0;" edge="1" parent="1" source="hf5jpUwvI0Tzl1pVDB7x-30" target="hf5jpUwvI0Tzl1pVDB7x-32">
          <mxGeometry relative="1" as="geometry" />
        </mxCell>
        <mxCell id="hf5jpUwvI0Tzl1pVDB7x-34" value="F" style="text;html=1;align=center;verticalAlign=middle;resizable=0;points=[];autosize=1;strokeColor=none;fillColor=none;" vertex="1" parent="1">
          <mxGeometry x="515" y="1568" width="30" height="30" as="geometry" />
        </mxCell>
        <mxCell id="hf5jpUwvI0Tzl1pVDB7x-35" value="" style="shape=waypoint;sketch=0;fillStyle=solid;size=6;pointerEvents=1;points=[];fillColor=none;resizable=0;rotatable=0;perimeter=centerPerimeter;snapToPoint=1;" vertex="1" parent="1">
          <mxGeometry x="390" y="720" width="20" height="20" as="geometry" />
        </mxCell>
        <mxCell id="hf5jpUwvI0Tzl1pVDB7x-36" style="edgeStyle=orthogonalEdgeStyle;rounded=0;orthogonalLoop=1;jettySize=auto;html=1;exitX=1;exitY=0.5;exitDx=0;exitDy=0;entryX=1.05;entryY=0.6;entryDx=0;entryDy=0;entryPerimeter=0;" edge="1" parent="1" source="hf5jpUwvI0Tzl1pVDB7x-28" target="hf5jpUwvI0Tzl1pVDB7x-35">
          <mxGeometry relative="1" as="geometry">
            <Array as="points">
              <mxPoint x="710" y="1540" />
              <mxPoint x="710" y="730" />
            </Array>
          </mxGeometry>
        </mxCell>
        <mxCell id="hf5jpUwvI0Tzl1pVDB7x-38" value="T" style="text;html=1;align=center;verticalAlign=middle;resizable=0;points=[];autosize=1;strokeColor=none;fillColor=none;" vertex="1" parent="1">
          <mxGeometry x="595" y="1468" width="30" height="30" as="geometry" />
        </mxCell>
      </root>
    </mxGraphModel>
  </diagram>
</mxfile>
